<svg width="25" height="25" viewBox="0 0 25 25" fill="none" xmlns="http://www.w3.org/2000/svg">
<path d="M25 4.16656H0V20.8334H25V4.16656Z" fill="#F0F0F0"/>
<path d="M25 6.24969H0V8.33285H25V6.24969Z" fill="#D80027"/>
<path d="M25 10.4166H0V12.4997H25V10.4166Z" fill="#D80027"/>
<path d="M25 14.5828H0V16.666H25V14.5828Z" fill="#D80027"/>
<path d="M25 18.7497H0V20.8329H25V18.7497Z" fill="#D80027"/>
<path d="M12.5 4.16656H0V13.141H12.5V4.16656Z" fill="#2E52B2"/>
<path d="M4.8741 7.84296L4.67278 8.46229H4.02161L4.54851 8.84486L4.34719 9.46415L4.8741 9.08158L5.40066 9.46415L5.19939 8.84486L5.72629 8.46229H5.07507L4.8741 7.84296Z" fill="#F0F0F0"/>
<path d="M5.07507 10.6973L4.8741 10.078L4.67278 10.6973H4.02161L4.54851 11.0799L4.34719 11.6992L4.8741 11.3166L5.40066 11.6992L5.19939 11.0799L5.72629 10.6973H5.07507Z" fill="#F0F0F0"/>
<path d="M2.32311 10.6973L2.12208 10.078L1.92076 10.6973H1.26959L1.7965 11.0799L1.59518 11.6992L2.12208 11.3166L2.64869 11.6992L2.44742 11.0799L2.97423 10.6973H2.32311Z" fill="#F0F0F0"/>
<path d="M2.12208 7.84296L1.92076 8.46229H1.26959L1.7965 8.84486L1.59518 9.46415L2.12208 9.08158L2.64869 9.46415L2.44742 8.84486L2.97423 8.46229H2.32311L2.12208 7.84296Z" fill="#F0F0F0"/>
<path d="M4.8741 5.60791L4.67278 6.2273H4.02161L4.54851 6.60991L4.34719 7.2292L4.8741 6.84658L5.40066 7.2292L5.19939 6.60991L5.72629 6.2273H5.07507L4.8741 5.60791Z" fill="#F0F0F0"/>
<path d="M2.12208 5.60791L1.92076 6.2273H1.26959L1.7965 6.60991L1.59518 7.2292L2.12208 6.84658L2.64869 7.2292L2.44742 6.60991L2.97423 6.2273H2.32311L2.12208 5.60791Z" fill="#F0F0F0"/>
<path d="M7.62612 7.84296L7.42485 8.46229H6.77368L7.30054 8.84486L7.09932 9.46415L7.62612 9.08158L8.15278 9.46415L7.95146 8.84486L8.47837 8.46229H7.8272L7.62612 7.84296Z" fill="#F0F0F0"/>
<path d="M7.8272 10.6973L7.62612 10.078L7.42485 10.6973H6.77368L7.30054 11.0799L7.09932 11.6992L7.62612 11.3166L8.15278 11.6992L7.95146 11.0799L8.47837 10.6973H7.8272Z" fill="#F0F0F0"/>
<path d="M10.5792 10.6973L10.3782 10.078L10.1769 10.6973H9.52576L10.0526 11.0799L9.85129 11.6992L10.3782 11.3166L10.9048 11.6992L10.7035 11.0799L11.2304 10.6973H10.5792Z" fill="#F0F0F0"/>
<path d="M10.3782 7.84296L10.1769 8.46229H9.52576L10.0526 8.84486L9.85129 9.46415L10.3782 9.08158L10.9048 9.46415L10.7035 8.84486L11.2304 8.46229H10.5792L10.3782 7.84296Z" fill="#F0F0F0"/>
<path d="M7.62612 5.60791L7.42485 6.2273H6.77368L7.30054 6.60991L7.09932 7.2292L7.62612 6.84658L8.15278 7.2292L7.95146 6.60991L8.47837 6.2273H7.8272L7.62612 5.60791Z" fill="#F0F0F0"/>
<path d="M10.3782 5.60791L10.1769 6.2273H9.52576L10.0526 6.60991L9.85129 7.2292L10.3782 6.84658L10.9048 7.2292L10.7035 6.60991L11.2304 6.2273H10.5792L10.3782 5.60791Z" fill="#F0F0F0"/>
</svg>
